<svg width="22" height="24" viewBox="0 0 22 24" fill="none" xmlns="http://www.w3.org/2000/svg">
<path d="M2.31579 21.7143C1.04211 21.7143 0 20.6897 0 19.4375V4.5625C0 3.31027 1.04211 2.28571 2.31579 2.28571C3.58947 2.28571 4.63158 3.31027 4.63158 4.5625V19.4375C4.63158 20.6518 3.58947 21.7143 2.31579 21.7143Z" fill="#B9D0FF"/>
<path d="M8.10526 24C6.83158 24 5.78947 23.054 5.78947 21.8978V2.10219C5.78947 0.945985 6.83158 0 8.10526 0C9.37895 0 10.4211 0.945985 10.4211 2.10219V21.8978C10.4211 23.054 9.37895 24 8.10526 24Z" fill="#B9D0FF"/>
<path d="M13.8947 17.7143C12.6211 17.7143 11.5789 16.75 11.5789 15.5714V8.42857C11.5789 7.25 12.6211 6.28571 13.8947 6.28571C15.1684 6.28571 16.2105 7.25 16.2105 8.42857V15.5714C16.2105 16.75 15.1684 17.7143 13.8947 17.7143Z" fill="#B9D0FF"/>
<path d="M19.6842 14.8571C18.4105 14.8571 17.3684 13.8487 17.3684 12.6162V11.3838C17.3684 10.1513 18.4105 9.14286 19.6842 9.14286C20.9579 9.14286 22 10.1513 22 11.3838V12.6162C22 13.8487 20.9579 14.8571 19.6842 14.8571Z" fill="#B9D0FF"/>
</svg>
