<svg width="16" height="16" viewBox="0 0 24 26" fill="none" xmlns="http://www.w3.org/2000/svg">
<path d="M2.4689 23.3429C1.111 23.3429 0 22.2415 0 20.8953V4.90469C0 3.55854 1.111 2.45714 2.4689 2.45714C3.82679 2.45714 4.9378 3.55854 4.9378 4.90469V20.8953C4.9378 22.2007 3.82679 23.3429 2.4689 23.3429Z" fill="#B9D0FF"/>
<path d="M8.64115 25.8C7.28325 25.8 6.17225 24.7831 6.17225 23.5401V2.25985C6.17225 1.01693 7.28325 0 8.64115 0C9.99904 0 11.11 1.01693 11.11 2.25985V23.5401C11.11 24.7831 9.99904 25.8 8.64115 25.8Z" fill="#B9D0FF"/>
<path d="M14.8134 19.0429C13.4555 19.0429 12.3445 18.0063 12.3445 16.7393V9.06071C12.3445 7.79375 13.4555 6.75714 14.8134 6.75714C16.1713 6.75714 17.2823 7.79375 17.2823 9.06071V16.7393C17.2823 18.0063 16.1713 19.0429 14.8134 19.0429Z" fill="#B9D0FF"/>
<path d="M20.9856 15.9714C19.6278 15.9714 18.5167 14.8874 18.5167 13.5625V12.2375C18.5167 10.9126 19.6278 9.82857 20.9856 9.82857C22.3435 9.82857 23.4545 10.9126 23.4545 12.2375V13.5625C23.4545 14.8874 22.3435 15.9714 20.9856 15.9714Z" fill="#B9D0FF"/>
</svg>
