<svg width="19" height="19" viewBox="0 0 19 19" fill="none" xmlns="http://www.w3.org/2000/svg">
<g filter="url(#filter0_i_321_1736)">
<path fill-rule="evenodd" clip-rule="evenodd" d="M13.1754 7.3698C14.3049 8.17346 15.6575 8.60284 17.0433 8.59764V5.84874C16.7709 5.8495 16.4992 5.82031 16.2331 5.76169V7.95165C14.8442 7.95411 13.4896 7.51981 12.3606 6.71006V12.3636C12.3572 13.2913 12.103 14.2008 11.625 14.9956C11.147 15.7905 10.463 16.441 9.64555 16.8783C8.82809 17.3155 7.90763 17.5233 6.98179 17.4794C6.05595 17.4355 5.15923 17.1416 4.38672 16.629C5.10127 17.3526 6.0143 17.8477 7.01018 18.0516C8.00605 18.2556 9.03999 18.1591 9.98107 17.7745C10.9221 17.3899 11.728 16.7344 12.2967 15.8911C12.8653 15.0478 13.1711 14.0545 13.1754 13.0371V7.3698ZM14.1778 4.56593C13.6034 3.9428 13.251 3.14709 13.1754 2.30267V1.94531H12.4064C12.5014 2.48207 12.7083 2.9928 13.0135 3.44429C13.3187 3.89579 13.7154 4.27795 14.1778 4.56593ZM6.16734 14.4528C5.9008 14.1039 5.73746 13.6872 5.69591 13.25C5.65435 12.8128 5.73625 12.3727 5.93229 11.9798C6.12832 11.5869 6.43062 11.257 6.80477 11.0276C7.17892 10.7982 7.6099 10.6785 8.04866 10.6822C8.2909 10.6821 8.53172 10.7192 8.76273 10.7922V7.95165C8.49268 7.91585 8.22031 7.90054 7.94795 7.90583V10.1141C7.38544 9.93614 6.77661 9.97661 6.24256 10.2275C5.7085 10.4783 5.28835 10.9212 5.06567 11.468C4.843 12.0148 4.83411 12.6254 5.04078 13.1785C5.24745 13.7315 5.65454 14.1865 6.18107 14.4528H6.16734Z" fill="#EE1D52"/>
<path fill-rule="evenodd" clip-rule="evenodd" d="M12.3603 6.69173C13.4893 7.50148 14.8439 7.93578 16.2328 7.93332V5.74337C15.4415 5.5759 14.7226 5.16407 14.1775 4.56592C13.7151 4.27794 13.3184 3.89579 13.0132 3.44429C12.708 2.99279 12.5011 2.48207 12.4061 1.94531H10.3829V13.0371C10.381 13.5281 10.2255 14.0061 9.93833 14.4041C9.65114 14.8021 9.24663 15.1001 8.78157 15.2563C8.31652 15.4125 7.81429 15.419 7.34537 15.2748C6.87645 15.1307 6.4644 14.8433 6.16705 14.4528C5.69582 14.2148 5.31843 13.8249 5.09578 13.3459C4.87314 12.8669 4.81821 12.3268 4.93987 11.8127C5.06153 11.2987 5.35267 10.8406 5.76633 10.5125C6.17999 10.1844 6.69204 10.0053 7.21986 10.0042C7.46203 10.0049 7.70272 10.042 7.93393 10.1141V7.90583C6.93495 7.92983 5.96471 8.24525 5.14231 8.81338C4.31991 9.38151 3.68114 10.1776 3.30441 11.104C2.92768 12.0303 2.82939 13.0466 3.02161 14.0281C3.21382 15.0096 3.68817 15.9135 4.38643 16.629C5.1591 17.1453 6.05723 17.4422 6.98516 17.488C7.91308 17.5338 8.83604 17.3268 9.65573 16.8891C10.4754 16.4514 11.1611 15.7994 11.6398 15.0024C12.1185 14.2055 12.3723 13.2935 12.374 12.3636L12.3603 6.69173Z" fill="#18181C"/>
<path fill-rule="evenodd" clip-rule="evenodd" d="M16.2322 5.7437V5.15268C15.5055 5.15578 14.7928 4.95242 14.1769 4.56625C14.7206 5.16612 15.4401 5.57829 16.2322 5.7437ZM12.4055 1.94564C12.4055 1.84026 12.3734 1.73031 12.3597 1.62493V1.26758H9.56748V12.364C9.56506 12.9853 9.31644 13.5803 8.8762 14.0183C8.43595 14.4564 7.84005 14.7017 7.21927 14.7005C6.85374 14.7023 6.49297 14.6176 6.16646 14.4531C6.46381 14.8436 6.87586 15.1311 7.34478 15.2752C7.8137 15.4193 8.31593 15.4128 8.78098 15.2566C9.24604 15.1005 9.65055 14.8025 9.93774 14.4045C10.2249 14.0064 10.3804 13.5284 10.3823 13.0374V1.94564H12.4055ZM7.93334 7.90158V7.27391C6.78436 7.11769 5.61638 7.35557 4.61977 7.94879C3.62316 8.54202 2.85667 9.4556 2.44522 10.5406C2.03378 11.6257 2.00164 12.8182 2.35405 13.9239C2.70646 15.0296 3.42263 15.9832 4.38584 16.6293C3.69287 15.9122 3.22357 15.0086 3.03528 14.0289C2.84699 13.0492 2.94786 12.0359 3.32558 11.1126C3.70329 10.1893 4.34148 9.39619 5.1622 8.83003C5.98291 8.26386 6.95061 7.9492 7.94707 7.92449L7.93334 7.90158Z" fill="#69C9D0"/>
</g>
<defs>
<filter id="filter0_i_321_1736" x="0" y="0" width="19" height="19.5" filterUnits="userSpaceOnUse" color-interpolation-filters="sRGB">
<feFlood flood-opacity="0" result="BackgroundImageFix"/>
<feBlend mode="normal" in="SourceGraphic" in2="BackgroundImageFix" result="shape"/>
<feColorMatrix in="SourceAlpha" type="matrix" values="0 0 0 0 0 0 0 0 0 0 0 0 0 0 0 0 0 0 127 0" result="hardAlpha"/>
<feOffset dy="0.5"/>
<feGaussianBlur stdDeviation="1.25"/>
<feComposite in2="hardAlpha" operator="arithmetic" k2="-1" k3="1"/>
<feColorMatrix type="matrix" values="0 0 0 0 0 0 0 0 0 0 0 0 0 0 0 0 0 0 0.1 0"/>
<feBlend mode="normal" in2="shape" result="effect1_innerShadow_321_1736"/>
</filter>
</defs>
</svg>
