<svg width="186" height="18" viewBox="0 0 186 18" fill="none" xmlns="http://www.w3.org/2000/svg">
<path d="M1.78947 16.2857C0.805263 16.2857 0 15.5173 0 14.5781V3.42188C0 2.4827 0.805263 1.71429 1.78947 1.71429C2.77368 1.71429 3.57895 2.4827 3.57895 3.42188V14.5781C3.57895 15.4888 2.77368 16.2857 1.78947 16.2857Z" fill="#030922"/>
<path d="M6.26316 18C5.27895 18 4.47368 17.2905 4.47368 16.4234V1.57664C4.47368 0.709489 5.27895 0 6.26316 0C7.24737 0 8.05263 0.709489 8.05263 1.57664V16.4234C8.05263 17.2905 7.24737 18 6.26316 18Z" fill="#030922"/>
<path d="M10.7368 13.2857C9.75263 13.2857 8.94737 12.5625 8.94737 11.6786V6.32143C8.94737 5.4375 9.75263 4.71429 10.7368 4.71429C11.7211 4.71429 12.5263 5.4375 12.5263 6.32143V11.6786C12.5263 12.5625 11.7211 13.2857 10.7368 13.2857Z" fill="#030922"/>
<path d="M15.2105 11.1429C14.2263 11.1429 13.4211 10.3866 13.4211 9.46218V8.53782C13.4211 7.61345 14.2263 6.85714 15.2105 6.85714C16.1947 6.85714 17 7.61345 17 8.53782V9.46218C17 10.3866 16.1947 11.1429 15.2105 11.1429Z" fill="#030922"/>
<path d="M26.2801 15.9867C24.2009 15.9867 22.4226 15.5085 21 14.5522V11.6566C21.6019 12.1347 22.3679 12.5598 23.3528 12.9317C24.3103 13.277 25.2679 13.463 26.1707 13.463C26.9093 13.463 27.5386 13.3302 28.0584 13.0645C28.5782 12.7989 28.8518 12.4004 28.8518 11.8956C28.8518 11.7362 28.8244 11.5768 28.7971 11.444C28.7697 11.3112 28.6876 11.2049 28.5508 11.0987C28.414 10.9924 28.3046 10.8862 28.2225 10.8065C28.1405 10.7268 27.9763 10.6471 27.7301 10.5674C27.4839 10.4877 27.3197 10.408 27.1829 10.3814C27.0461 10.3548 26.8273 10.2751 26.499 10.1689C26.1707 10.0626 25.9245 10.0095 25.7877 9.95636C25.2952 9.79697 24.9669 9.6907 24.748 9.63757C24.5565 9.58444 24.2556 9.45161 23.8179 9.31879C23.4075 9.15939 23.1066 9.02657 22.9151 8.89374C22.7236 8.76092 22.5047 8.60152 22.2311 8.38899C21.9575 8.17647 21.7387 7.96395 21.6292 7.72486C21.4924 7.48577 21.383 7.22012 21.3009 6.90133C21.1915 6.58255 21.1641 6.2372 21.1641 5.83872C21.1641 4.64327 21.6292 3.71349 22.5594 3.02278C23.4896 2.33208 24.7754 1.98672 26.3895 1.98672C28.0037 1.98672 29.5084 2.35864 30.931 3.10248V5.81216C29.5357 4.96206 28.031 4.537 26.4169 4.537C24.8301 4.537 24.0641 4.98862 24.0641 5.86528C24.0641 5.9981 24.0915 6.13094 24.1462 6.2372C24.2009 6.34346 24.283 6.44973 24.4198 6.55599C24.5566 6.66225 24.666 6.74194 24.8028 6.79507C24.9396 6.8482 25.1037 6.92791 25.3499 7.0076C25.5688 7.0873 25.7877 7.14042 25.9518 7.19355C26.116 7.24668 26.3622 7.29982 26.6905 7.40609C27.0188 7.48578 27.265 7.56547 27.4565 7.61861C27.9763 7.778 28.414 7.93739 28.7697 8.09678C29.1254 8.25617 29.5357 8.44213 29.9461 8.68122C30.3565 8.92031 30.7121 9.18596 30.9583 9.45161C31.2046 9.71727 31.4234 10.0626 31.6149 10.4877C31.7791 10.8862 31.8612 11.3378 31.8612 11.8425C31.8612 13.1176 31.3414 14.1537 30.3018 14.8975C29.1801 15.6148 27.8669 15.9867 26.2801 15.9867Z" fill="#030922"/>
<path d="M42.0313 14.5256C40.9917 15.5085 39.6785 15.9867 38.0918 15.9867C36.4776 15.9867 35.1644 15.5085 34.1522 14.5256C33.1126 13.5427 32.5928 12.3472 32.5928 10.9127C32.5928 9.47818 33.1126 8.28273 34.1522 7.32638C35.1918 6.34345 36.505 5.86527 38.0918 5.86527C39.6785 5.86527 41.0191 6.34345 42.0313 7.32638C43.0709 8.3093 43.5907 9.50474 43.5907 10.9127C43.5634 12.3472 43.0436 13.5427 42.0313 14.5256ZM36.122 12.8254C36.6418 13.3302 37.2984 13.5958 38.0918 13.5958C38.8851 13.5958 39.5417 13.3302 40.0615 12.8254C40.5814 12.3207 40.8276 11.6566 40.8276 10.8862C40.8276 10.1158 40.5814 9.47818 40.0615 8.97344C39.5417 8.46869 38.8851 8.20305 38.0918 8.20305C37.2984 8.20305 36.6418 8.46869 36.122 8.97344C35.6022 9.47818 35.3559 10.1158 35.3559 10.8862C35.3286 11.6831 35.6022 12.3207 36.122 12.8254Z" fill="#030922"/>
<path d="M52.244 6.13095H55.0345V15.7476H52.244V14.5788C51.3685 15.5085 50.2742 15.9867 48.9336 15.9867C47.7846 15.9867 46.8818 15.6414 46.2525 14.9241C45.6233 14.2068 45.3223 13.2505 45.3223 12.0019V6.10439H48.1129V11.444C48.1129 12.1879 48.3044 12.7192 48.66 13.0114C49.043 13.3302 49.4808 13.463 50.0006 13.463C50.4383 13.463 50.8761 13.3567 51.2864 13.1177C51.6968 12.8786 51.9977 12.5864 52.244 12.2144V6.13095Z" fill="#030922"/>
<path d="M60.0784 15.7211H57.2879V6.10439H60.0784V7.27327C60.9812 6.34348 62.1029 5.86529 63.3887 5.86529C64.5378 5.86529 65.4406 6.21064 66.0698 6.92791C66.6991 7.64518 67 8.60153 67 9.85011V15.7476H64.2095V10.408C64.2095 9.66416 64.018 9.13284 63.6623 8.84062C63.2793 8.52184 62.8416 8.38901 62.3218 8.38901C61.884 8.38901 61.4463 8.49528 61.0359 8.73437C60.6256 8.97346 60.3246 9.26567 60.0784 9.63759V15.7211Z" fill="#030922"/>
<path d="M73.4538 15.7476C72.1133 15.7476 70.9916 15.2695 70.1162 14.2865C69.2407 13.3036 68.803 12.1082 68.803 10.6737C68.803 9.23912 69.2407 8.04367 70.1162 7.08731C70.9916 6.10439 72.1133 5.62621 73.4538 5.62621C74.8491 5.62621 75.9434 6.1044 76.7095 7.06075V2.01331H79.5V15.5086H76.7095V14.3397C75.9708 15.296 74.9038 15.7476 73.4538 15.7476ZM74.2472 13.3833C74.7944 13.3833 75.2869 13.2505 75.7246 12.9583C76.1623 12.6926 76.4906 12.3473 76.7095 11.9222V9.42507C76.4906 9.02659 76.1623 8.68124 75.7246 8.41559C75.2869 8.14993 74.7944 8.0171 74.2472 8.0171C73.4539 8.0171 72.8246 8.28277 72.3322 8.78751C71.8397 9.29225 71.5661 9.92981 71.5661 10.7002C71.5661 11.4706 71.8124 12.1082 72.3322 12.6395C72.8246 13.1442 73.4812 13.3833 74.2472 13.3833Z" fill="#030922"/>
<path d="M82 15.7476V2.25239H84.8452V15.7476H82Z" fill="#030922"/>
<path d="M90.4426 15.6945H87.6521V6.07781H90.4426V7.2467C91.3455 6.31691 92.4672 5.83872 93.753 5.83872C94.902 5.83872 95.8048 6.18407 96.4341 6.90133C97.0633 7.6186 97.3643 8.57496 97.3643 9.82353V15.7211H94.5737V10.3814C94.5737 9.63759 94.3822 9.10627 94.0266 8.81405C93.6436 8.49526 93.2058 8.36243 92.686 8.36243C92.2483 8.36243 91.8106 8.46871 91.4002 8.7078C90.9898 8.94689 90.6889 9.2391 90.4426 9.61101V15.6945Z" fill="#030922"/>
<path d="M110.045 15.9867C109.279 15.9867 108.65 15.7742 108.157 15.3757C107.665 14.9772 107.419 14.2865 107.419 13.3302V8.38901H103.069V15.7211H100.278V8.38901H98.5V6.10439H100.278V5.20115C100.278 4.2448 100.552 3.4744 101.126 2.88996C101.701 2.30552 102.522 2.0133 103.616 2.0133C104.574 2.0133 105.422 2.14613 106.133 2.41178V4.61671C105.558 4.40419 104.984 4.29792 104.437 4.29792C103.534 4.29792 103.069 4.72298 103.069 5.59964V6.13095H107.419V2.25239H110.209V12.6129C110.209 13.2505 110.51 13.5693 111.112 13.5693C111.386 13.5693 111.632 13.5161 111.823 13.3833V15.6148C111.331 15.8805 110.729 15.9867 110.045 15.9867Z" fill="#030922"/>
<path d="M120.082 6.1575H122.872V15.7742H120.082V14.6053C119.206 15.5351 118.112 16.0133 116.771 16.0133C115.622 16.0133 114.719 15.6679 114.09 14.9507C113.461 14.2334 113.16 13.277 113.16 12.0285V6.13095H115.951V11.4706C115.951 12.2144 116.142 12.7457 116.498 13.038C116.881 13.3568 117.318 13.4896 117.838 13.4896C118.276 13.4896 118.714 13.3833 119.124 13.1442C119.534 12.9051 119.835 12.6129 120.082 12.241V6.1575Z" fill="#030922"/>
<path d="M129.999 15.9602C128.44 15.9602 127.154 15.5086 126.087 14.5788C125.02 13.649 124.5 12.427 124.5 10.8862C124.5 9.45163 124.992 8.25619 125.95 7.29983C126.907 6.31691 128.139 5.83873 129.671 5.83873C131.121 5.83873 132.27 6.31691 133.118 7.29983C133.966 8.28275 134.404 9.47819 134.404 10.9127V11.63H127.291C127.427 12.2941 127.81 12.7723 128.412 13.1177C129.014 13.463 129.753 13.6224 130.628 13.6224C131.777 13.6224 132.844 13.3302 133.802 12.7723V14.9507C132.872 15.6414 131.613 15.9602 129.999 15.9602ZM127.263 9.92982H131.613C131.586 9.39851 131.394 8.94689 131.011 8.57497C130.628 8.20305 130.136 8.0171 129.534 8.0171C128.877 8.0171 128.357 8.20306 127.974 8.54841C127.564 8.89376 127.345 9.34538 127.263 9.92982Z" fill="#030922"/>
<path d="M139.078 15.6945H136.288V6.07783H139.078V7.24671C139.981 6.31692 141.103 5.83873 142.389 5.83873C143.538 5.83873 144.441 6.18408 145.07 6.90135C145.699 7.61862 146 8.57497 146 9.82355V15.7211H143.209V10.3814C143.209 9.6376 143.018 9.10629 142.662 8.81407C142.279 8.49528 141.842 8.36245 141.322 8.36245C140.884 8.36245 140.446 8.46872 140.036 8.70781C139.626 8.9469 139.325 9.23911 139.078 9.61103V15.6945Z" fill="#030922"/>
<path d="M153.023 15.9602C151.545 15.9602 150.287 15.482 149.22 14.5522C148.153 13.6224 147.633 12.4004 147.633 10.8596C147.633 9.34538 148.153 8.12336 149.22 7.22014C150.287 6.29035 151.545 5.83873 153.05 5.83873C154.117 5.83873 155.102 6.05126 155.977 6.47631V8.78749C155.129 8.38901 154.281 8.20306 153.46 8.20306C152.612 8.20306 151.874 8.44215 151.272 8.94689C150.67 9.45164 150.369 10.0892 150.369 10.8862C150.369 11.6831 150.67 12.3207 151.272 12.8254C151.874 13.3302 152.585 13.5693 153.46 13.5693C154.445 13.5693 155.321 13.3567 156.141 12.9051V15.2163C155.266 15.7211 154.226 15.9602 153.023 15.9602Z" fill="#030922"/>
<path d="M162.976 15.9602C161.416 15.9602 160.13 15.5086 159.064 14.5788C157.997 13.649 157.477 12.427 157.477 10.8862C157.477 9.45163 157.969 8.25619 158.927 7.29983C159.884 6.31691 161.115 5.83873 162.647 5.83873C164.097 5.83873 165.246 6.31691 166.095 7.29983C166.943 8.28275 167.38 9.47819 167.38 10.9127V11.63H160.267C160.404 12.2941 160.787 12.7723 161.389 13.1177C161.991 13.463 162.73 13.6224 163.605 13.6224C164.754 13.6224 165.821 13.3302 166.779 12.7723V14.9507C165.848 15.6414 164.59 15.9602 162.976 15.9602ZM160.24 9.92982H164.59C164.562 9.39851 164.371 8.94689 163.988 8.57497C163.605 8.20305 163.113 8.0171 162.511 8.0171C161.854 8.0171 161.334 8.20306 160.951 8.54841C160.541 8.89376 160.322 9.34538 160.24 9.92982Z" fill="#030922"/>
<path d="M169.236 15.6945V6.07783H172.026V7.69831C172.327 7.19357 172.792 6.76853 173.422 6.39662C174.051 6.0247 174.735 5.83873 175.473 5.83873C175.583 5.83873 175.692 5.83874 175.802 5.86531V8.52185C175.556 8.46872 175.255 8.41558 174.926 8.41558C174.242 8.41558 173.64 8.57498 173.121 8.92033C172.601 9.26569 172.218 9.63759 172.026 10.0892V15.6945H169.236Z" fill="#030922"/>
<path d="M181.158 15.9336C179.38 15.9336 177.985 15.6414 177 15.0304V12.6129C177.41 12.9051 178.012 13.1442 178.724 13.3833C179.462 13.5959 180.228 13.7287 181.022 13.7287C182.171 13.7287 182.718 13.463 182.718 12.9317C182.718 12.7989 182.69 12.6661 182.608 12.5864C182.526 12.4801 182.417 12.4004 182.225 12.3473C182.034 12.2941 181.87 12.241 181.706 12.1879C181.541 12.1348 181.295 12.0816 180.994 12.0019C180.693 11.9222 180.42 11.8425 180.201 11.7894C179.079 11.5237 178.286 11.1784 177.766 10.7268C177.246 10.3017 177 9.6376 177 8.78751C177 7.85772 177.383 7.14044 178.149 6.60914C178.915 6.07783 179.982 5.83873 181.35 5.83873C182.855 5.83873 184.086 6.13096 185.071 6.7154V9.02659C183.922 8.36245 182.718 8.0171 181.487 8.0171C180.42 8.0171 179.9 8.28276 179.9 8.78751C179.9 8.92033 179.927 9.02659 180.009 9.13285C180.091 9.23912 180.228 9.31881 180.42 9.39851C180.611 9.47821 180.775 9.53133 180.94 9.5579C181.104 9.58446 181.323 9.66417 181.651 9.7173C181.979 9.79699 182.198 9.85012 182.362 9.87668C183.429 10.1158 184.223 10.4877 184.77 10.9659C185.317 11.4441 185.59 12.1082 185.59 12.9317C185.59 13.8349 185.18 14.5522 184.387 15.1101C183.566 15.668 182.472 15.9336 181.158 15.9336Z" fill="#030922"/>
</svg>
