<svg width="186" height="18" viewBox="0 0 186 18" fill="none" xmlns="http://www.w3.org/2000/svg">
<path d="M1.78947 16.2857C0.805263 16.2857 0 15.5173 0 14.5781V3.42188C0 2.4827 0.805263 1.71429 1.78947 1.71429C2.77368 1.71429 3.57895 2.4827 3.57895 3.42188V14.5781C3.57895 15.4888 2.77368 16.2857 1.78947 16.2857Z" fill="#B9D0FF"/>
<path d="M6.26316 18C5.27895 18 4.47368 17.2905 4.47368 16.4234V1.57664C4.47368 0.709489 5.27895 0 6.26316 0C7.24737 0 8.05263 0.709489 8.05263 1.57664V16.4234C8.05263 17.2905 7.24737 18 6.26316 18Z" fill="#B9D0FF"/>
<path d="M10.7368 13.2857C9.75263 13.2857 8.94737 12.5625 8.94737 11.6786V6.32143C8.94737 5.4375 9.75263 4.71429 10.7368 4.71429C11.7211 4.71429 12.5263 5.4375 12.5263 6.32143V11.6786C12.5263 12.5625 11.7211 13.2857 10.7368 13.2857Z" fill="#B9D0FF"/>
<path d="M15.2105 11.1429C14.2263 11.1429 13.4211 10.3866 13.4211 9.46218V8.53782C13.4211 7.61345 14.2263 6.85714 15.2105 6.85714C16.1947 6.85714 17 7.61345 17 8.53782V9.46218C17 10.3866 16.1947 11.1429 15.2105 11.1429Z" fill="#B9D0FF"/>
<path d="M26.2801 15.9868C24.2009 15.9868 22.4226 15.5086 21 14.5523V11.6566C21.6019 12.1348 22.3679 12.5599 23.3528 12.9318C24.3103 13.2771 25.2679 13.4631 26.1707 13.4631C26.9093 13.4631 27.5386 13.3303 28.0584 13.0646C28.5782 12.799 28.8518 12.4005 28.8518 11.8957C28.8518 11.7363 28.8244 11.5769 28.7971 11.4441C28.7697 11.3113 28.6876 11.205 28.5508 11.0988C28.414 10.9925 28.3046 10.8862 28.2225 10.8066C28.1405 10.7269 27.9763 10.6472 27.7301 10.5675C27.4839 10.4878 27.3197 10.4081 27.1829 10.3815C27.0461 10.3549 26.8273 10.2752 26.499 10.169C26.1707 10.0627 25.9245 10.0096 25.7877 9.95645C25.2952 9.79706 24.9669 9.6908 24.748 9.63767C24.5565 9.58453 24.2556 9.4517 23.8179 9.31888C23.4075 9.15948 23.1066 9.02666 22.9151 8.89384C22.7236 8.76101 22.5047 8.60161 22.2311 8.38909C21.9575 8.17656 21.7387 7.96404 21.6292 7.72495C21.4924 7.48586 21.383 7.22021 21.3009 6.90143C21.1915 6.58264 21.1641 6.23729 21.1641 5.83881C21.1641 4.64336 21.6292 3.71358 22.5594 3.02288C23.4896 2.33217 24.7754 1.98682 26.3895 1.98682C28.0037 1.98682 29.5084 2.35874 30.931 3.10257V5.81225C29.5357 4.96215 28.031 4.53709 26.4169 4.53709C24.8301 4.53709 24.0641 4.98871 24.0641 5.86537C24.0641 5.99819 24.0915 6.13103 24.1462 6.23729C24.2009 6.34355 24.283 6.44982 24.4198 6.55608C24.5566 6.66234 24.666 6.74203 24.8028 6.79516C24.9396 6.84829 25.1037 6.928 25.3499 7.00769C25.5688 7.08739 25.7877 7.14051 25.9518 7.19364C26.116 7.24677 26.3622 7.29991 26.6905 7.40618C27.0188 7.48587 27.265 7.56557 27.4565 7.6187C27.9763 7.77809 28.414 7.93748 28.7697 8.09687C29.1254 8.25626 29.5357 8.44223 29.9461 8.68132C30.3565 8.9204 30.7121 9.18605 30.9583 9.4517C31.2046 9.71736 31.4234 10.0627 31.6149 10.4878C31.7791 10.8862 31.8612 11.3379 31.8612 11.8426C31.8612 13.1177 31.3414 14.1538 30.3018 14.8976C29.1801 15.6149 27.8669 15.9868 26.2801 15.9868Z" fill="#030922"/>
<path d="M42.0313 14.5257C40.9917 15.5086 39.6785 15.9868 38.0918 15.9868C36.4776 15.9868 35.1644 15.5086 34.1522 14.5257C33.1126 13.5428 32.5928 12.3473 32.5928 10.9128C32.5928 9.47827 33.1126 8.28282 34.1522 7.32647C35.1918 6.34354 36.505 5.86537 38.0918 5.86537C39.6785 5.86537 41.0191 6.34354 42.0313 7.32647C43.0709 8.30939 43.5907 9.50483 43.5907 10.9128C43.5634 12.3473 43.0436 13.5428 42.0313 14.5257ZM36.122 12.8255C36.6418 13.3303 37.2984 13.5959 38.0918 13.5959C38.8851 13.5959 39.5417 13.3303 40.0615 12.8255C40.5814 12.3208 40.8276 11.6566 40.8276 10.8862C40.8276 10.1158 40.5814 9.47827 40.0615 8.97353C39.5417 8.46879 38.8851 8.20314 38.0918 8.20314C37.2984 8.20314 36.6418 8.46879 36.122 8.97353C35.6022 9.47827 35.3559 10.1158 35.3559 10.8862C35.3286 11.6832 35.6022 12.3208 36.122 12.8255Z" fill="#030922"/>
<path d="M52.244 6.13104H55.0345V15.7477H52.244V14.5788C51.3685 15.5086 50.2742 15.9868 48.9336 15.9868C47.7846 15.9868 46.8818 15.6415 46.2525 14.9242C45.6233 14.2069 45.3223 13.2506 45.3223 12.002V6.10448H48.1129V11.4441C48.1129 12.188 48.3044 12.7193 48.66 13.0115C49.043 13.3303 49.4808 13.4631 50.0006 13.4631C50.4383 13.4631 50.8761 13.3568 51.2864 13.1177C51.6968 12.8787 51.9977 12.5865 52.244 12.2145V6.13104Z" fill="#030922"/>
<path d="M60.0784 15.7212H57.2879V6.10448H60.0784V7.27336C60.9812 6.34357 62.1029 5.86538 63.3887 5.86538C64.5378 5.86538 65.4406 6.21073 66.0698 6.928C66.6991 7.64527 67 8.60162 67 9.8502V15.7477H64.2095V10.4081C64.2095 9.66425 64.018 9.13294 63.6623 8.84072C63.2793 8.52193 62.8416 8.3891 62.3218 8.3891C61.884 8.3891 61.4463 8.49538 61.0359 8.73446C60.6256 8.97355 60.3246 9.26576 60.0784 9.63768V15.7212Z" fill="#030922"/>
<path d="M73.4538 15.7477C72.1133 15.7477 70.9916 15.2696 70.1162 14.2866C69.2407 13.3037 68.803 12.1083 68.803 10.6737C68.803 9.23921 69.2407 8.04376 70.1162 7.0874C70.9916 6.10448 72.1133 5.6263 73.4538 5.6263C74.8491 5.6263 75.9434 6.10449 76.7095 7.06085V2.0134H79.5V15.5087H76.7095V14.3398C75.9708 15.2961 74.9038 15.7477 73.4538 15.7477ZM74.2472 13.3834C74.7944 13.3834 75.2869 13.2506 75.7246 12.9584C76.1623 12.6927 76.4906 12.3474 76.7095 11.9223V9.42516C76.4906 9.02668 76.1623 8.68133 75.7246 8.41568C75.2869 8.15002 74.7944 8.0172 74.2472 8.0172C73.4539 8.0172 72.8246 8.28286 72.3322 8.7876C71.8397 9.29234 71.5661 9.9299 71.5661 10.7003C71.5661 11.4707 71.8124 12.1083 72.3322 12.6396C72.8246 13.1443 73.4812 13.3834 74.2472 13.3834Z" fill="#030922"/>
<path d="M82 15.7477V2.25248H84.8452V15.7477H82Z" fill="#030922"/>
<path d="M90.4426 15.6946H87.6521V6.0779H90.4426V7.24679C91.3455 6.317 92.4672 5.83881 93.753 5.83881C94.902 5.83881 95.8048 6.18416 96.4341 6.90143C97.0633 7.61869 97.3643 8.57505 97.3643 9.82363V15.7212H94.5737V10.3815C94.5737 9.63768 94.3822 9.10636 94.0266 8.81414C93.6436 8.49536 93.2058 8.36253 92.686 8.36253C92.2483 8.36253 91.8106 8.4688 91.4002 8.70789C90.9898 8.94698 90.6889 9.23919 90.4426 9.61111V15.6946Z" fill="#030922"/>
<path d="M110.045 15.9868C109.279 15.9868 108.65 15.7743 108.157 15.3758C107.665 14.9773 107.419 14.2866 107.419 13.3303V8.3891H103.069V15.7212H100.278V8.3891H98.5V6.10448H100.278V5.20125C100.278 4.24489 100.552 3.47449 101.126 2.89005C101.701 2.30561 102.522 2.01339 103.616 2.01339C104.574 2.01339 105.422 2.14622 106.133 2.41187V4.6168C105.558 4.40428 104.984 4.29801 104.437 4.29801C103.534 4.29801 103.069 4.72307 103.069 5.59973V6.13104H107.419V2.25248H110.209V12.613C110.209 13.2506 110.51 13.5694 111.112 13.5694C111.386 13.5694 111.632 13.5162 111.823 13.3834V15.6149C111.331 15.8806 110.729 15.9868 110.045 15.9868Z" fill="#030922"/>
<path d="M120.082 6.1576H122.872V15.7743H120.082V14.6054C119.206 15.5352 118.112 16.0134 116.771 16.0134C115.622 16.0134 114.719 15.668 114.09 14.9508C113.461 14.2335 113.16 13.2771 113.16 12.0286V6.13104H115.951V11.4707C115.951 12.2145 116.142 12.7458 116.498 13.0381C116.881 13.3568 117.318 13.4897 117.838 13.4897C118.276 13.4897 118.714 13.3834 119.124 13.1443C119.534 12.9052 119.835 12.613 120.082 12.2411V6.1576Z" fill="#030922"/>
<path d="M129.999 15.9603C128.44 15.9603 127.154 15.5087 126.087 14.5789C125.02 13.6491 124.5 12.4271 124.5 10.8863C124.5 9.45173 124.992 8.25628 125.95 7.29992C126.907 6.317 128.139 5.83882 129.671 5.83882C131.121 5.83882 132.27 6.317 133.118 7.29992C133.966 8.28284 134.404 9.47828 134.404 10.9128V11.6301H127.291C127.427 12.2942 127.81 12.7724 128.412 13.1178C129.014 13.4631 129.753 13.6225 130.628 13.6225C131.777 13.6225 132.844 13.3303 133.802 12.7724V14.9508C132.872 15.6415 131.613 15.9603 129.999 15.9603ZM127.263 9.92991H131.613C131.586 9.3986 131.394 8.94698 131.011 8.57506C130.628 8.20315 130.136 8.01719 129.534 8.01719C128.877 8.01719 128.357 8.20315 127.974 8.5485C127.564 8.89385 127.345 9.34547 127.263 9.92991Z" fill="#030922"/>
<path d="M139.078 15.6946H136.288V6.07792H139.078V7.2468C139.981 6.31701 141.103 5.83882 142.389 5.83882C143.538 5.83882 144.441 6.18417 145.07 6.90144C145.699 7.61871 146 8.57507 146 9.82364V15.7212H143.209V10.3815C143.209 9.63769 143.018 9.10638 142.662 8.81416C142.279 8.49537 141.842 8.36254 141.322 8.36254C140.884 8.36254 140.446 8.46882 140.036 8.70791C139.626 8.94699 139.325 9.23921 139.078 9.61112V15.6946Z" fill="#030922"/>
<path d="M153.023 15.9603C151.545 15.9603 150.287 15.4821 149.22 14.5523C148.153 13.6225 147.633 12.4005 147.633 10.8597C147.633 9.34547 148.153 8.12346 149.22 7.22023C150.287 6.29044 151.545 5.83882 153.05 5.83882C154.117 5.83882 155.102 6.05135 155.977 6.4764V8.78758C155.129 8.3891 154.281 8.20316 153.46 8.20316C152.612 8.20316 151.874 8.44224 151.272 8.94698C150.67 9.45173 150.369 10.0893 150.369 10.8863C150.369 11.6832 150.67 12.3208 151.272 12.8255C151.874 13.3303 152.585 13.5694 153.46 13.5694C154.445 13.5694 155.321 13.3568 156.141 12.9052V15.2164C155.266 15.7212 154.226 15.9603 153.023 15.9603Z" fill="#030922"/>
<path d="M162.976 15.9603C161.416 15.9603 160.13 15.5087 159.064 14.5789C157.997 13.6491 157.477 12.4271 157.477 10.8863C157.477 9.45173 157.969 8.25628 158.927 7.29992C159.884 6.317 161.115 5.83882 162.647 5.83882C164.097 5.83882 165.246 6.317 166.095 7.29992C166.943 8.28284 167.38 9.47828 167.38 10.9128V11.6301H160.267C160.404 12.2942 160.787 12.7724 161.389 13.1178C161.991 13.4631 162.73 13.6225 163.605 13.6225C164.754 13.6225 165.821 13.3303 166.779 12.7724V14.9508C165.848 15.6415 164.59 15.9603 162.976 15.9603ZM160.24 9.92991H164.59C164.562 9.3986 164.371 8.94698 163.988 8.57506C163.605 8.20315 163.113 8.01719 162.511 8.01719C161.854 8.01719 161.334 8.20315 160.951 8.5485C160.541 8.89385 160.322 9.34547 160.24 9.92991Z" fill="#030922"/>
<path d="M169.236 15.6946V6.07792H172.026V7.6984C172.327 7.19366 172.792 6.76862 173.422 6.39671C174.051 6.02479 174.735 5.83882 175.473 5.83882C175.583 5.83882 175.692 5.83883 175.802 5.8654V8.52194C175.556 8.46881 175.255 8.41568 174.926 8.41568C174.242 8.41568 173.64 8.57507 173.121 8.92043C172.601 9.26578 172.218 9.63768 172.026 10.0893V15.6946H169.236Z" fill="#030922"/>
<path d="M181.158 15.9337C179.38 15.9337 177.985 15.6415 177 15.0305V12.613C177.41 12.9052 178.012 13.1443 178.724 13.3834C179.462 13.5959 180.228 13.7288 181.022 13.7288C182.171 13.7288 182.718 13.4631 182.718 12.9318C182.718 12.799 182.69 12.6662 182.608 12.5865C182.526 12.4802 182.417 12.4005 182.225 12.3474C182.034 12.2942 181.87 12.2411 181.706 12.188C181.541 12.1348 181.295 12.0817 180.994 12.002C180.693 11.9223 180.42 11.8426 180.201 11.7895C179.079 11.5238 178.286 11.1785 177.766 10.7269C177.246 10.3018 177 9.63769 177 8.7876C177 7.85781 177.383 7.14054 178.149 6.60923C178.915 6.07792 179.982 5.83882 181.35 5.83882C182.855 5.83882 184.086 6.13105 185.071 6.7155V9.02668C183.922 8.36254 182.718 8.01719 181.487 8.01719C180.42 8.01719 179.9 8.28286 179.9 8.7876C179.9 8.92043 179.927 9.02668 180.009 9.13295C180.091 9.23921 180.228 9.3189 180.42 9.3986C180.611 9.4783 180.775 9.53142 180.94 9.55799C181.104 9.58455 181.323 9.66426 181.651 9.71739C181.979 9.79709 182.198 9.85021 182.362 9.87678C183.429 10.1159 184.223 10.4878 184.77 10.966C185.317 11.4441 185.59 12.1083 185.59 12.9318C185.59 13.835 185.18 14.5523 184.387 15.1102C183.566 15.668 182.472 15.9337 181.158 15.9337Z" fill="#030922"/>
</svg>
