<svg width="20" height="20" viewBox="0 0 20 20" fill="none" xmlns="http://www.w3.org/2000/svg">
<path d="M6.2803 10.4721C6.2803 9.96563 5.9283 9.66309 5.30764 9.66309C5.0543 9.66309 4.88297 9.68774 4.79297 9.71173V11.3384C4.89964 11.3624 5.0303 11.371 5.20964 11.371C5.87164 11.371 6.2803 11.0359 6.2803 10.4721ZM10.1243 9.67908C9.8463 9.67908 9.6663 9.70374 9.55964 9.72839V13.3322C9.6663 13.3569 9.83764 13.3569 9.99297 13.3569C11.121 13.3649 11.857 12.7438 11.857 11.4284C11.8656 10.2842 11.195 9.67908 10.1243 9.67908Z" fill="#2A2A2A"/>
<path d="M17.487 7.39051H17.035V5.26616L17.031 5.22589C17.0314 5.1405 17.0004 5.05779 16.9437 4.99274L13.315 0.955755L13.3123 0.953158C13.2662 0.904543 13.2075 0.868882 13.1423 0.849895L13.1223 0.8434C13.0947 0.836417 13.0662 0.832925 13.0377 0.833009H4.11967C3.71233 0.833009 3.38167 1.15579 3.38167 1.55195V7.39051H2.92967C2.347 7.39051 1.875 7.85032 1.875 8.41794V13.7616C1.875 14.3286 2.34767 14.789 2.92967 14.789H3.38167V18.4474C3.38167 18.8436 3.71233 19.1663 4.11967 19.1663H16.297C16.7037 19.1663 17.035 18.8436 17.035 18.4474V14.789H17.487C18.0697 14.789 18.5417 14.3286 18.5417 13.7616V8.41794C18.5417 7.85032 18.069 7.39051 17.487 7.39051ZM4.11967 1.55195H12.6683V5.23044C12.6683 5.42917 12.8337 5.58958 13.0377 5.58958H16.2977V7.39051H4.11967V1.55195ZM13.1797 11.1184C13.1797 12.1458 12.7957 12.855 12.263 13.2927C11.683 13.7623 10.8003 13.9857 9.721 13.9857C9.075 13.9857 8.61767 13.9454 8.30633 13.9064V8.63355C8.76433 8.56212 9.361 8.5225 9.991 8.5225C11.037 8.5225 11.7157 8.70564 12.247 9.09596C12.8197 9.50966 13.1797 10.1708 13.1797 11.1184ZM3.55567 13.9305V8.63355C3.93967 8.56991 4.47967 8.5225 5.23967 8.5225C6.00833 8.5225 6.55633 8.66603 6.92367 8.95244C7.275 9.22326 7.51167 9.66943 7.51167 10.1948C7.51167 10.7209 7.33233 11.1664 7.005 11.4691C6.57967 11.8594 5.95033 12.0347 5.21433 12.0347C5.051 12.0347 4.90367 12.0269 4.78967 12.0107V13.9305H3.55567ZM16.297 18.2526H4.11967V14.789H16.297V18.2526ZM17.3663 9.55772H15.2483V10.7845H17.227V11.7723H15.2483V13.9305H13.9983V8.56212H17.3663V9.55772Z" fill="#2A2A2A"/>
</svg>
