<svg width="24" height="28" viewBox="0 0 24 28" fill="none" xmlns="http://www.w3.org/2000/svg">
<path d="M3.5 2.5V18.2857H13.9615V17.0714H4.80769V3.71429H11.3462V7.35714H15.2692V8.57143H16.5769V6.50714L16.3808 6.325L12.4577 2.68214L12.2615 2.5H3.5ZM12.6538 4.56429L14.3538 6.14286H12.6538V4.56429ZM6.11538 8.57143V9.78571H13.9615V8.57143H6.11538ZM17.2308 9.78571V11C16.1192 11.1821 15.2692 12.0321 15.2692 13.125C15.2692 14.3393 16.25 15.25 17.5577 15.25H18.2115C18.7346 15.25 19.1923 15.675 19.1923 16.1607C19.1923 16.6464 18.7346 17.0714 18.2115 17.0714H15.9231V18.2857H17.2308V19.5H18.5385V18.2857C19.65 18.1036 20.5 17.2536 20.5 16.1607C20.5 14.9464 19.5192 14.0357 18.2115 14.0357H17.5577C17.0346 14.0357 16.5769 13.6107 16.5769 13.125C16.5769 12.6393 17.0346 12.2143 17.5577 12.2143H19.8462V11H18.5385V9.78571H17.2308ZM6.11538 11.6071V12.8214H10.6923V11.6071H6.11538ZM12 11.6071V12.8214H13.9615V11.6071H12ZM6.11538 14.0357V15.25H10.6923V14.0357H6.11538ZM12 14.0357V15.25H13.9615V14.0357H12Z" fill="#18181C"/>
<g clip-path="url(#clip0_4361_2052)">
<path d="M6 23.8573H17.875" stroke="#18181C" stroke-width="1.3" stroke-linecap="round" stroke-linejoin="round"/>
<path d="M16 25.8572L18.5 23.8572L16 21.8572" stroke="#18181C" stroke-width="1.3" stroke-linecap="round" stroke-linejoin="round"/>
</g>
<defs>
<clipPath id="clip0_4361_2052">
<rect width="15" height="6" fill="white" transform="matrix(-1 0 0 1 19.5 21)"/>
</clipPath>
</defs>
</svg>
