<svg width="24" height="24" viewBox="0 0 24 24" fill="none" xmlns="http://www.w3.org/2000/svg">
<g clip-path="url(#clip0_4361_2044)">
<path d="M14.5 10.5L9.934 12L9 11.066L13.132 7.5H15L18 9L20.5 9.5V16L18.5 16.5H13.874" stroke="#18181C" stroke-width="1.3" stroke-miterlimit="10" stroke-linecap="round" stroke-linejoin="round"/>
<path d="M3.5 15L6.097 15.5L10.049 19.451L11.758 19.157L12.052 17.448L13.761 17.153L14.056 15.444L15.764 15.15L16.059 13.441L13.46 10.842M11.514 8.896L9.618 7L6 8.5L3.5 9M3.5 7.5H0.5V16.5H3.5V7.5ZM23.5 8.5H20.5V17.5H23.5V8.5Z" stroke="#18181C" stroke-width="1.3" stroke-miterlimit="10" stroke-linejoin="round"/>
</g>
<defs>
<clipPath id="clip0_4361_2044">
<rect width="24" height="24" fill="white"/>
</clipPath>
</defs>
</svg>
