<svg width="24" height="24" viewBox="0 0 24 24" fill="none" xmlns="http://www.w3.org/2000/svg">
<path d="M18.5077 2.5H13.1886C13.0233 2.49988 12.8646 2.56522 12.7473 2.68173L2.11346 13.313C1.88068 13.5469 1.75 13.8635 1.75 14.1935C1.75 14.5235 1.88068 14.8401 2.11346 15.074L7.17596 20.1365C7.40996 20.3693 7.72662 20.5 8.0567 20.5C8.38679 20.5 8.70345 20.3693 8.93745 20.1365L19.5683 9.5096C19.6848 9.39228 19.7501 9.23361 19.75 9.06826V3.74615C19.7508 3.58261 19.7192 3.42052 19.6571 3.26923C19.595 3.11793 19.5036 2.98041 19.3882 2.86459C19.2727 2.74876 19.1355 2.65692 18.9844 2.59435C18.8333 2.53178 18.6713 2.49971 18.5077 2.5Z" stroke="#18181C" stroke-width="1.5" stroke-linecap="round" stroke-linejoin="round"/>
<path d="M16.5 6.75C16.2033 6.75 15.9133 6.66203 15.6666 6.49721C15.42 6.33238 15.2277 6.09812 15.1142 5.82403C15.0006 5.54994 14.9709 5.24834 15.0288 4.95737C15.0867 4.66639 15.2296 4.39912 15.4393 4.18934C15.6491 3.97956 15.9164 3.8367 16.2074 3.77882C16.4983 3.72094 16.7999 3.75065 17.074 3.86418C17.3481 3.97771 17.5824 4.16997 17.7472 4.41665C17.912 4.66332 18 4.95333 18 5.25C18 5.64783 17.842 6.02936 17.5607 6.31066C17.2794 6.59197 16.8978 6.75 16.5 6.75Z" fill="#18181C"/>
<path d="M10.75 22.5L22.5694 10.71C22.6282 10.6509 22.6745 10.5806 22.7055 10.5033C22.7365 10.426 22.7516 10.3432 22.7499 10.26V4.5" stroke="#18181C" stroke-linecap="round" stroke-linejoin="round"/>
</svg>
