<svg width="24" height="24" viewBox="0 0 24 24" fill="none" xmlns="http://www.w3.org/2000/svg">
<g clip-path="url(#clip0_1_141044)">
<path fill-rule="evenodd" clip-rule="evenodd" d="M14.9997 1.79702C15.0797 1.73368 15.1497 1.66035 15.2097 1.57702C15.2684 1.49768 15.3217 1.41435 15.3697 1.32702C15.7697 0.487018 15.7897 0.327018 15.5997 0.147018C15.4097 -0.0329822 15.3497 -0.152982 14.4597 0.587018C14.3797 0.650351 14.3064 0.720351 14.2397 0.797018C14.1764 0.877018 14.1197 0.960351 14.0697 1.04702C13.6197 2.04702 13.7997 2.12702 13.8697 2.19702C14.1097 2.40702 14.9197 1.85702 14.9997 1.79702ZM19.8997 4.57702C19.9997 4.53502 20.0964 4.48502 20.1897 4.42702C21.1897 3.86702 21.1897 3.75702 21.1197 3.54702C21.0497 3.33702 20.9097 3.15702 19.7997 3.32702C19.6797 3.34702 19.5631 3.37702 19.4497 3.41702C19.3343 3.4583 19.2236 3.51194 19.1197 3.57702C19.1197 3.57702 18.1697 4.26702 18.3197 4.57702C18.3197 4.67702 18.4197 4.89702 19.5797 4.67702C19.689 4.6527 19.796 4.61925 19.8997 4.57702ZM21.5397 10.418C21.4362 10.3045 21.3223 10.2007 21.1997 10.108C21.0785 10.0088 20.9479 9.92175 20.8097 9.84802C20.6797 9.78802 19.5097 9.23802 19.2997 9.61802C19.2297 9.73802 19.0897 9.80802 20.1197 10.818C20.2171 10.918 20.3237 11.008 20.4397 11.088C20.5531 11.1767 20.6731 11.2567 20.7997 11.328C21.9097 11.988 22.0897 11.988 22.2597 11.768C22.4297 11.548 22.4097 11.378 21.5397 10.418ZM3.42973 5.59702C3.3287 5.56211 3.22503 5.53536 3.11973 5.51702H2.80973C1.61973 5.60702 1.66973 5.87702 1.65973 5.97702C1.64973 6.07702 1.65973 6.30702 2.65973 6.67702C2.74973 6.71235 2.84306 6.73902 2.93973 6.75702C3.03973 6.77168 3.13973 6.77168 3.23973 6.75702C4.32973 6.69702 4.32973 6.47702 4.34973 6.37702C4.39972 6.07702 3.51973 5.63702 3.42973 5.59702ZM2.88973 11.208C2.77344 11.2743 2.66593 11.3549 2.56973 11.448C2.46466 11.5334 2.37356 11.6346 2.29973 11.748C1.48973 12.848 1.74973 12.998 1.83973 13.078C1.92973 13.158 2.10973 13.258 3.10973 12.588L3.38973 12.388L3.63973 12.138C4.34973 11.288 4.36972 11.138 4.25972 10.998C4.14972 10.858 3.10973 11.088 2.88973 11.208Z" fill="#0C6FFF"/>
<path fill-rule="evenodd" clip-rule="evenodd" d="M13.2689 9.1568C12.8929 9.06509 12.5051 9.03137 12.1189 9.0568V7.7168C12.4869 7.7568 12.8479 7.8518 13.1889 7.9968C13.2261 8.01775 13.2673 8.03102 13.3098 8.03582C13.3523 8.04061 13.3953 8.03684 13.4363 8.02472C13.4773 8.0126 13.5155 7.99238 13.5486 7.96526C13.5817 7.93813 13.6089 7.90465 13.6289 7.8668C13.6495 7.8289 13.6622 7.78724 13.6663 7.7443C13.6704 7.70137 13.6657 7.65805 13.6526 7.61696C13.6396 7.57586 13.6183 7.53783 13.5902 7.50515C13.562 7.47247 13.5276 7.44582 13.4889 7.4268C13.0557 7.19969 12.5846 7.05395 12.0989 6.9968V5.4868C12.1073 5.40076 12.0817 5.31485 12.0274 5.24753C11.9732 5.18021 11.8947 5.13686 11.8089 5.1268C11.7233 5.12085 11.6387 5.14743 11.572 5.2012C11.5052 5.25497 11.4613 5.33198 11.4489 5.4168C11.3589 5.9168 11.2889 6.4168 11.1989 6.9268C10.9322 6.94033 10.6675 6.98053 10.4089 7.0468C10.1909 7.08416 9.98245 7.16445 9.79574 7.28302C9.60902 7.40158 9.44772 7.55606 9.32119 7.73747C9.19467 7.91889 9.10544 8.12363 9.05869 8.33981C9.01194 8.556 9.0086 8.77931 9.04886 8.9968C9.07611 9.26429 9.18037 9.51814 9.34899 9.72759C9.5176 9.93703 9.74335 10.0931 9.99886 10.1768C10.2939 10.2818 10.6059 10.3328 10.9189 10.3268V10.8168C10.9189 11.2468 10.9989 11.6768 11.0389 12.0968C10.4116 12.129 9.7928 11.9416 9.28886 11.5668C9.25526 11.5317 9.2149 11.5038 9.17021 11.4847C9.12553 11.4656 9.07745 11.4558 9.02886 11.4558C8.98028 11.4558 8.93219 11.4656 8.88751 11.4847C8.84282 11.5038 8.80247 11.5317 8.76886 11.5668C8.70046 11.636 8.66211 11.7295 8.66211 11.8268C8.66211 11.9241 8.70046 12.0175 8.76886 12.0868C9.41955 12.6501 10.2483 12.9653 11.1089 12.9768C11.1089 13.2368 11.1589 13.4968 11.1889 13.7468C11.1889 13.8449 11.2278 13.939 11.2972 14.0084C11.3666 14.0778 11.4607 14.1168 11.5589 14.1168C11.657 14.1168 11.7511 14.0778 11.8205 14.0084C11.8899 13.939 11.9289 13.8449 11.9289 13.7468V12.9968C12.2035 12.9741 12.4735 12.9241 12.7389 12.8468C13.0157 12.7889 13.2777 12.6747 13.5085 12.5111C13.7393 12.3476 13.9339 12.1383 14.0803 11.8962C14.2266 11.6542 14.3215 11.3846 14.3592 11.1043C14.3968 10.8239 14.3762 10.5389 14.2989 10.2668C14.244 10.0057 14.1192 9.76451 13.9378 9.56897C13.7563 9.37343 13.5251 9.23095 13.2689 9.1568ZM10.1489 8.7868C9.99886 8.1768 10.4589 7.8968 11.0289 7.7868C11.0289 7.9568 10.9589 8.1268 10.9389 8.2968C10.9189 8.4668 10.9389 8.8368 10.9389 9.1168C10.8093 9.13176 10.6784 9.13176 10.5489 9.1168C10.4528 9.12267 10.3581 9.09188 10.2838 9.03063C10.2096 8.96938 10.1613 8.88223 10.1489 8.7868ZM11.9989 11.9968L12.0589 10.8268V10.3068H12.1189C12.3322 10.2821 12.5455 10.2821 12.7589 10.3068C12.9289 10.3068 13.0789 10.3868 13.1289 10.5668C13.3989 11.3668 12.7589 11.7968 11.9989 11.9968Z" fill="#020202"/>
<path fill-rule="evenodd" clip-rule="evenodd" d="M11.6791 2.76682C8.67906 2.76682 5.67906 4.30682 4.77906 6.82682C4.49281 7.54993 4.35756 8.32396 4.38164 9.1013C4.40572 9.87863 4.58861 10.6428 4.91906 11.3468C5.67857 12.6882 6.659 13.8917 7.81906 14.9068C8.32906 15.4268 8.74906 15.8368 8.76906 16.2468C8.77091 16.3101 8.7958 16.3706 8.83906 16.4168H8.15906C8.07303 16.4084 7.98712 16.434 7.9198 16.4883C7.85248 16.5425 7.80913 16.621 7.79906 16.7068C7.79903 16.7697 7.81814 16.8312 7.85387 16.883C7.88959 16.9348 7.94023 16.9745 7.99906 16.9968C7.95735 17.0112 7.91945 17.0348 7.88826 17.066C7.85707 17.0972 7.8334 17.1351 7.81906 17.1768C7.71023 17.3653 7.65293 17.5792 7.65293 17.7968C7.65293 18.0145 7.71023 18.2283 7.81906 18.4168C7.99006 18.6688 8.22006 18.8748 8.48906 19.0168C8.42906 19.3475 8.39573 19.6808 8.38906 20.0168C8.38506 20.3068 8.45806 20.5938 8.59906 20.8468C8.79306 21.1708 9.08306 21.4268 9.42906 21.5768C9.48706 21.6022 9.54706 21.6222 9.60906 21.6368C9.56915 21.9915 9.59286 22.3505 9.67906 22.6968C9.78379 23.0133 9.96598 23.2987 10.2091 23.5268C10.4421 23.7168 10.7111 23.8598 10.9991 23.9468C11.2984 24.0167 11.6098 24.0167 11.9091 23.9468C12.2256 23.8976 12.5182 23.749 12.7447 23.5225C12.9712 23.296 13.1198 23.0033 13.1691 22.6868C13.1827 22.6395 13.1868 22.59 13.181 22.5412C13.1753 22.4923 13.1599 22.4451 13.1357 22.4022C13.1115 22.3594 13.0789 22.3218 13.04 22.2917C13.0011 22.2616 12.9566 22.2395 12.9091 22.2268C12.8151 22.2049 12.7162 22.2196 12.6327 22.2679C12.5491 22.3162 12.487 22.3944 12.4591 22.4868C12.4102 22.5861 12.3368 22.6713 12.2458 22.7343C12.1548 22.7973 12.0492 22.836 11.9391 22.8468C11.8005 22.854 11.6618 22.8371 11.5291 22.7968C11.3192 22.7588 11.1208 22.6732 10.9491 22.5468C10.7726 22.4579 10.6265 22.3187 10.5291 22.1468C10.4829 22.0402 10.4461 21.9298 10.4191 21.8168L10.8191 21.8668C11.3524 21.9068 11.8857 21.9068 12.4191 21.8668C13.0246 21.8077 13.604 21.5905 14.0991 21.2368C14.4097 20.9906 14.6403 20.6576 14.7613 20.2802C14.8824 19.9027 14.8886 19.4978 14.7791 19.1168C15.0621 18.9958 15.3231 18.8268 15.5491 18.6168C15.7117 18.4818 15.8273 18.2988 15.8794 18.094C15.9315 17.8892 15.9174 17.6731 15.8391 17.4768C15.8287 17.43 15.8088 17.3859 15.7806 17.3471C15.7525 17.3084 15.7167 17.2758 15.6754 17.2514C15.6342 17.227 15.5884 17.2114 15.5408 17.2054C15.4933 17.1995 15.445 17.2034 15.3991 17.2168C15.3517 17.2285 15.3071 17.2494 15.2679 17.2784C15.2287 17.3074 15.1956 17.3438 15.1705 17.3857C15.1454 17.4275 15.1288 17.4739 15.1217 17.5221C15.1146 17.5704 15.1171 17.6195 15.1291 17.6668C15.1791 17.8668 15.0791 17.8868 14.9591 17.9968C14.6291 18.1968 14.2611 18.3218 13.8791 18.3668C13.1491 18.4998 12.4091 18.5598 11.6691 18.5468C11.2291 18.5728 10.7891 18.5728 10.3491 18.5468C10.2291 18.5468 8.78906 18.4668 8.47906 18.0668C8.42155 17.9887 8.38493 17.8972 8.37268 17.8009C8.36043 17.7047 8.37296 17.6069 8.40906 17.5168C8.42928 17.46 8.43247 17.3985 8.41826 17.3399C8.40405 17.2813 8.37305 17.2281 8.32906 17.1868C9.12506 17.3808 9.9284 17.5342 10.7391 17.6468C11.1277 17.6915 11.5177 17.7148 11.9091 17.7168C12.3037 17.7168 12.6971 17.6968 13.0891 17.6568C14.0126 17.5623 14.922 17.361 15.7991 17.0568C15.8463 17.045 15.8908 17.024 15.93 16.995C15.9691 16.966 16.0022 16.9295 16.0273 16.8877C16.0523 16.846 16.0689 16.7996 16.0761 16.7514C16.0833 16.7032 16.0809 16.6541 16.0691 16.6068C16.0572 16.5595 16.0362 16.5151 16.0072 16.4759C15.9782 16.4368 15.9418 16.4037 15.9 16.3786C15.8582 16.3535 15.8119 16.337 15.7637 16.3298C15.7155 16.3226 15.6663 16.325 15.6191 16.3368C15.4091 16.3368 15.1991 16.3368 14.9891 16.4068C15.1844 15.9722 15.4244 15.5622 15.7091 15.1768C16.83 13.7715 17.7365 12.2078 18.3991 10.5368C18.7794 9.40799 18.7794 8.18565 18.3991 7.05682C17.4191 4.10682 14.5791 2.74682 11.6791 2.76682ZM11.6791 19.7668C12.4599 19.7419 13.2337 19.6107 13.9791 19.3768C13.9939 19.5699 13.9583 19.7635 13.876 19.9388C13.7936 20.1141 13.6672 20.265 13.5091 20.3768C13.1317 20.5562 12.7166 20.6419 12.2991 20.6268C11.8191 20.6528 11.3391 20.6528 10.8591 20.6268C10.522 20.6431 10.1845 20.606 9.85906 20.5168C9.67981 20.4874 9.51797 20.3922 9.40517 20.2498C9.29237 20.1074 9.23671 19.9281 9.24906 19.7468V19.4168C10.0502 19.6577 10.8825 19.779 11.7191 19.7768L11.6791 19.7668ZM17.4391 10.1868C16.8643 11.7881 16.0482 13.2921 15.0191 14.6468C14.6455 15.1877 14.3619 15.7854 14.1791 16.4168H9.33906C9.38368 16.3626 9.41149 16.2966 9.41906 16.2268C9.26586 15.5191 8.88683 14.8804 8.33906 14.4068C7.28656 13.4295 6.41337 12.2754 5.75906 10.9968C5.50144 10.4035 5.3685 9.76363 5.3685 9.11682C5.3685 8.47001 5.50144 7.83011 5.75906 7.23682C6.62906 5.12682 9.17906 3.99682 11.6891 3.99682C14.1991 3.99682 16.5091 4.99682 17.3991 7.35682C17.7361 8.26917 17.7642 9.26694 17.4791 10.1968L17.4391 10.1868Z" fill="#020202"/>
<path fill-rule="evenodd" clip-rule="evenodd" d="M6.86876 1.3369C6.89676 1.45023 6.9401 1.5569 6.99876 1.6569C7.0541 1.75623 7.11743 1.84956 7.18876 1.9369C7.18876 1.9369 7.92876 2.8069 8.18876 2.6469C8.44876 2.4869 8.18876 1.4169 8.18876 1.3869C8.15804 1.27872 8.11439 1.17463 8.05876 1.0769C8.0158 0.983166 7.96565 0.892897 7.90876 0.806898C7.20876 -0.0731022 7.05876 -0.0531022 6.90876 0.0468978C6.75876 0.146898 6.54876 0.256898 6.86876 1.3369Z" fill="#0C6FFF"/>
</g>
<defs>
<clipPath id="clip0_1_141044">
<rect width="24" height="24" fill="white"/>
</clipPath>
</defs>
</svg>
